<svg preserveAspectRatio="none" overflow="visible" style="display: block;" width="20.1113" height="17.244" viewBox="0 0 20.1113 17.244" fill="none" xmlns="http://www.w3.org/2000/svg">
<g id="ICONS">
<path id="Vector" d="M11.3833 0.0861078L4.23045 5.4596C4.18331 5.49495 4.15189 5.54209 4.12439 5.58923H0V11.658H4.12439C4.15189 11.7051 4.18724 11.7522 4.23045 11.7876L11.3833 17.1572C11.6661 17.3693 12.0707 17.169 12.0707 16.8154V0.431771C12.0707 0.0782513 11.6661 -0.126004 11.3833 0.0861078ZM16.1833 15.6802C15.8377 15.6802 15.4999 15.5035 15.3113 15.1814C15.0324 14.7022 15.1935 14.0855 15.6727 13.8066C15.767 13.7516 18.0963 12.2982 18.0963 8.62164C18.0963 4.89004 15.6963 3.4524 15.6727 3.43669C15.1935 3.1578 15.0324 2.5411 15.3113 2.06189C15.5902 1.58267 16.2069 1.42162 16.6861 1.70051C16.8315 1.77907 20.1113 3.75093 20.1113 8.62164C20.1113 13.4923 16.8315 15.4642 16.69 15.5428C16.529 15.637 16.3562 15.6802 16.1833 15.6802Z" fill="#1D1D1B"/>
<path id="Vector_2" d="M14.0312 12.9136C13.6855 12.9136 13.3477 12.7369 13.1631 12.4148C12.8842 11.9356 13.0453 11.3189 13.5245 11.04C13.552 11.0243 14.4908 10.4115 14.4908 8.87566C14.4908 7.33982 13.552 6.72705 13.5088 6.69955C13.0453 6.40888 12.8921 5.79219 13.1788 5.32475C13.4616 4.8534 14.0626 4.69628 14.5379 4.97124C14.6165 5.01837 16.5019 6.14571 16.5019 8.87566C16.5019 11.6056 14.6165 12.733 14.5379 12.7801C14.3769 12.8704 14.204 12.9136 14.0312 12.9136Z" fill="#1D1D1B"/>
</g>
</svg>
