<svg preserveAspectRatio="none" overflow="visible" style="display: block;" width="23.1195" height="19.5" viewBox="0 0 23.1195 19.5" fill="none" xmlns="http://www.w3.org/2000/svg">
<g id="Arrow Container">
<g id="Vector 145" filter="url(#filter0_f_0_1122)">
<path d="M8.75001 16.75L14.0806 10.531C14.4658 10.0816 14.4658 9.41845 14.0806 8.96906L8.75001 2.75001" stroke="#121212" stroke-width="1.5" stroke-linecap="round"/>
</g>
<path id="Vector 140" opacity="0.1" d="M0.750014 16.2949L6.08063 10.0759C6.46582 9.6265 6.46582 8.96337 6.08063 8.51399L0.750014 2.29494" stroke="#121212" stroke-width="1.5" stroke-linecap="round"/>
<path id="Vector 141" opacity="0.2" d="M4.75002 16.2949L10.0806 10.0759C10.4658 9.6265 10.4658 8.96337 10.0806 8.51399L4.75001 2.29494" stroke="#121212" stroke-width="1.5" stroke-linecap="round"/>
<path id="Vector 142" d="M8.75002 16.2949L14.0806 10.0759C14.4658 9.6265 14.4658 8.96337 14.0806 8.51399L8.75002 2.29494" stroke="#121212" stroke-width="1.5" stroke-linecap="round"/>
<path id="Vector 143" opacity="0.2" d="M12.75 16.2949L18.0806 10.0759C18.4658 9.6265 18.4658 8.96337 18.0806 8.51399L12.75 2.29494" stroke="#121212" stroke-width="1.5" stroke-linecap="round"/>
<path id="Vector 144" opacity="0.1" d="M16.75 16.2949L22.0806 10.0759C22.4658 9.6265 22.4658 8.96337 22.0806 8.51399L16.75 2.29494" stroke="#121212" stroke-width="1.5" stroke-linecap="round"/>
</g>
<defs>
<filter id="filter0_f_0_1122" x="6" y="8.9407e-08" width="11.1195" height="19.5" filterUnits="userSpaceOnUse" color-interpolation-filters="sRGB">
<feFlood flood-opacity="0" result="BackgroundImageFix"/>
<feBlend mode="normal" in="SourceGraphic" in2="BackgroundImageFix" result="shape"/>
<feGaussianBlur stdDeviation="1" result="effect1_foregroundBlur_0_1122"/>
</filter>
</defs>
</svg>
